<svg width="18" height="19" viewBox="0 0 18 19" fill="none" xmlns="http://www.w3.org/2000/svg">
<g opacity="0.8">
<path d="M15 13.25L13.912 3.72595C13.8815 3.45753 13.7508 3.20954 13.5447 3.02946C13.3387 2.84938 13.0718 2.74988 12.7954 2.75H5.11436C4.83611 2.74977 4.56768 2.85043 4.36109 3.0325C4.1545 3.21456 4.02446 3.46505 3.99618 3.73542L3 13.25H15Z" fill="#DD2E44"/>
<path d="M9 11.75C11.0711 11.75 12.75 10.0711 12.75 8C12.75 5.92893 11.0711 4.25 9 4.25C6.92893 4.25 5.25 5.92893 5.25 8C5.25 10.0711 6.92893 11.75 9 11.75Z" fill="#BE1931"/>
<path d="M15.5704 14H2.42963L2.25 15.5902C2.25 16.25 3 16.25 3 16.25H15C15 16.25 15.75 16.25 15.75 15.5902L15.5704 14Z" fill="#99AAB5"/>
<path d="M15.75 14L15.722 13.7129C15.6679 13.4234 15.4266 13.25 15.1385 13.25H2.86154C2.57342 13.25 2.3321 13.4234 2.27801 13.7129L2.25 14H15.75Z" fill="#CCD6DD"/>
<path d="M13.3792 7.85898L10.479 7.38684L12.1957 5.0004C12.2152 4.97308 12.2243 4.93973 12.2216 4.9063C12.2188 4.87286 12.2042 4.8415 12.1805 4.81778C12.1568 4.79405 12.1254 4.7795 12.092 4.77671C12.0586 4.77393 12.0253 4.78308 11.9979 4.80254L9.61177 6.51936L9.14013 3.61878C9.13466 3.5856 9.11759 3.55545 9.09196 3.5337C9.06632 3.51194 9.0338 3.5 9.00019 3.5C8.96657 3.5 8.93405 3.51194 8.90842 3.5337C8.88279 3.55545 8.86572 3.5856 8.86025 3.61878L8.38823 6.51936L6.00244 4.80254C5.97513 4.78308 5.94179 4.77393 5.90837 4.77671C5.87494 4.7795 5.84359 4.79405 5.81987 4.81778C5.79615 4.8415 5.78161 4.87286 5.77882 4.9063C5.77603 4.93973 5.78518 4.97308 5.80464 5.0004L7.52098 7.38684L4.62082 7.85898C4.58724 7.86394 4.55656 7.8808 4.53438 7.9065C4.5122 7.9322 4.5 7.96501 4.5 7.99896C4.5 8.03291 4.5122 8.06573 4.53438 8.09143C4.55656 8.11713 4.58724 8.13399 4.62082 8.13894L7.52098 8.61108L5.80464 10.9975C5.78518 11.0249 5.77603 11.0582 5.77882 11.0916C5.78161 11.1251 5.79615 11.1564 5.81987 11.1801C5.84359 11.2039 5.87494 11.2184 5.90837 11.2212C5.94179 11.224 5.97513 11.2148 6.00244 11.1954L8.38823 9.47857L8.86025 12.3791C8.8652 12.4127 8.88206 12.4434 8.90775 12.4656C8.93344 12.4878 8.96625 12.5 9.00019 12.5C9.03413 12.5 9.06694 12.4878 9.09263 12.4656C9.11832 12.4434 9.13518 12.4127 9.14013 12.3791L9.61177 9.47857L11.9976 11.1954C12.0249 11.2148 12.0582 11.224 12.0916 11.2212C12.1251 11.2184 12.1564 11.2039 12.1801 11.1801C12.2038 11.1564 12.2184 11.1251 12.2212 11.0916C12.224 11.0582 12.2148 11.0249 12.1954 10.9975L10.479 8.61108L13.3792 8.13894C13.4128 8.13399 13.4434 8.11713 13.4656 8.09143C13.4878 8.06573 13.5 8.03291 13.5 7.99896C13.5 7.96501 13.4878 7.9322 13.4656 7.9065C13.4434 7.8808 13.4128 7.86394 13.3792 7.85898Z" fill="#EC9DAD"/>
</g>
</svg>
