<svg width="174" height="38" viewBox="0 0 174 38" fill="none" xmlns="http://www.w3.org/2000/svg">
<g clip-path="url(#clip0_267_52)">
<path d="M7.5 29.2969H31.3594C31.875 29.2969 32.1094 29.0625 32.1094 28.5469V23.8125H7.5V29.2969ZM32.1094 1.92188H35.8594C36.8438 1.92188 37.6875 2.24999 38.3906 2.95311C39.0938 3.65624 39.4219 4.49999 39.4219 5.48437V33C39.4219 33.9844 39.0938 34.7812 38.3906 35.4844C37.6875 36.1875 36.8438 36.5625 35.8594 36.5625H0.1875V5.48437C0.1875 4.49999 0.515625 3.65624 1.21875 2.95311C1.92188 2.24999 2.76562 1.92188 3.75 1.92188H7.5V16.6875H32.1094V1.92188Z" fill="#EA4335"/>
<path d="M76.7811 27.5625V10.9688C76.7811 10.3594 76.5 10.0781 75.8906 10.0781H55.6875C55.0781 10.0781 54.7969 10.3594 54.7969 10.9688V28.4062H75.8906C76.5 28.4062 76.7811 28.125 76.7811 27.5625ZM51.1405 1.96875H80.9061C82.078 1.96875 83.0624 2.39062 83.8593 3.1875C84.703 3.98438 85.125 4.96875 85.125 6.14062V32.3906C85.125 33.5625 84.703 34.5469 83.8593 35.3438C83.0624 36.1406 82.078 36.5625 80.9061 36.5625H46.9688V6.14062C46.9688 4.96875 47.3906 3.98438 48.1875 3.1875C48.9844 2.39062 49.9687 1.96875 51.1405 1.96875Z" fill="#4285F4"/>
<path d="M92.8125 36.5625V3.1875C92.8125 2.57812 93.0469 2.0625 93.4688 1.64062C93.8906 1.21875 94.3594 1.03125 94.9688 1.03125H125.438C126.047 1.03125 126.562 1.21875 126.984 1.64062C127.406 2.0625 127.594 2.57812 127.594 3.1875V8.34375H99.6562V15.375H127.594V22.6875H99.6562V29.25H127.594V34.4062C127.594 35.0156 127.406 35.4844 126.984 35.9062C126.562 36.3281 126.047 36.5625 125.438 36.5625H92.8125Z" fill="#FBBC05"/>
<path d="M169.547 36.5625H135.281V18.75C135.281 17.8594 135.75 16.9688 136.734 16.125C137.719 15.2344 138.703 14.8125 139.734 14.8125H165.656V10.2188C165.656 9.84375 165.469 9.51562 165.141 9.23438C164.859 9 164.531 8.85938 164.203 8.85938H135.281V4.03125C135.281 3.14062 135.656 2.34375 136.359 1.6875C137.062 1.07812 137.953 0.75 138.984 0.75H169.547C170.578 0.75 171.469 1.07812 172.172 1.6875C172.875 2.34375 173.25 3.14062 173.25 4.03125V22.5469H144.609C144.281 22.5469 144 22.6875 143.719 22.9219C143.438 23.2031 143.297 23.5312 143.297 23.9062V28.3594H173.25V33.3281C173.25 34.2188 172.875 35.0156 172.172 35.625C171.469 36.2344 170.578 36.5625 169.547 36.5625Z" fill="#34A853"/>
</g>
<defs>
<clipPath id="clip0_267_52">
<rect width="174" height="37" fill="white" transform="translate(0 0.5)"/>
</clipPath>
</defs>
</svg>
