<svg width="18" height="19" viewBox="0 0 18 19" fill="none" xmlns="http://www.w3.org/2000/svg">
<path d="M6.45399 15.875C6.31599 16.9795 5.30849 17.375 4.20399 17.375C3.09949 17.375 2.31599 16.4795 2.45399 15.375L2.95399 10.875C3.09199 9.7705 4.09949 8.875 5.20399 8.875C6.30849 8.875 8.43799 8.875 6.95399 10.875C5.46999 12.875 6.45399 15.875 6.45399 15.875Z" fill="#BE1931"/>
<path d="M17.9124 7.875C17.9124 11.326 17.1404 14.125 16.1874 14.125C15.2349 14.125 5.9624 11.326 5.9624 7.875C5.9624 4.424 15.2349 1.625 16.1874 1.625C17.1404 1.625 17.9124 4.4235 17.9124 7.875Z" fill="#CCD6DD"/>
<path d="M16.1874 14.125C17.1401 14.125 17.9124 11.3268 17.9124 7.875C17.9124 4.42322 17.1401 1.625 16.1874 1.625C15.2347 1.625 14.4624 4.42322 14.4624 7.875C14.4624 11.3268 15.2347 14.125 16.1874 14.125Z" fill="#66757F"/>
<path d="M8.9624 11.375L1.9624 10.875C-0.537598 10.875 -0.537598 4.875 1.9624 4.875L8.9624 4.375C7.4624 5.875 7.4624 9.875 8.9624 11.375Z" fill="#DD2E44"/>
<path d="M15.6626 10.0489C16.0768 10.0489 16.4126 9.07559 16.4126 7.87493C16.4126 6.67426 16.0768 5.70093 15.6626 5.70093C15.2484 5.70093 14.9126 6.67426 14.9126 7.87493C14.9126 9.07559 15.2484 10.0489 15.6626 10.0489Z" fill="#99AAB5"/>
</svg>
