<svg width="90" height="20" viewBox="0 0 90 20" fill="none" xmlns="http://www.w3.org/2000/svg">
<g clip-path="url(#clip0_267_114)">
<path d="M3.87931 15.3063H16.2204C16.4871 15.3063 16.6083 15.1855 16.6083 14.9198V12.48H3.87931V15.3063ZM16.6083 1.19873H18.548C19.0571 1.19873 19.4935 1.36783 19.8572 1.73018C20.2209 2.09253 20.3906 2.52735 20.3906 3.03465V17.2147C20.3906 17.722 20.2209 18.1326 19.8572 18.495C19.4935 18.8574 19.0571 19.0506 18.548 19.0506H0.0969849V3.03465C0.0969849 2.52735 0.266705 2.09253 0.63039 1.73018C0.994078 1.36783 1.4305 1.19873 1.93966 1.19873H3.87931V8.80813H16.6083V1.19873Z" fill="#EA4335"/>
<path d="M39.7144 14.4125V5.86104C39.7144 5.54698 39.569 5.40203 39.2537 5.40203H28.8039C28.4887 5.40203 28.3432 5.54698 28.3432 5.86104V14.8473H39.2537C39.569 14.8473 39.7144 14.7024 39.7144 14.4125ZM26.452 1.2229H41.848C42.4542 1.2229 42.9633 1.44031 43.3755 1.85098C43.8119 2.26165 44.0302 2.76894 44.0302 3.37286V16.9007C44.0302 17.5046 43.8119 18.0119 43.3755 18.4226C42.9633 18.8332 42.4542 19.0506 41.848 19.0506H24.2942V3.37286C24.2942 2.76894 24.5124 2.26165 24.9246 1.85098C25.3367 1.44031 25.8459 1.2229 26.452 1.2229Z" fill="#4285F4"/>
<path d="M48.0065 19.0506V1.85096C48.0065 1.53692 48.1277 1.2712 48.3459 1.05378C48.5641 0.836373 48.8066 0.739746 49.1218 0.739746H64.8817C65.1967 0.739746 65.4631 0.836373 65.6814 1.05378C65.8997 1.2712 65.9969 1.53692 65.9969 1.85096V4.50821H51.5463V8.13174H65.9969V11.9002H51.5463V15.2822H65.9969V17.9394C65.9969 18.2534 65.8997 18.495 65.6814 18.7124C65.4631 18.9298 65.1967 19.0506 64.8817 19.0506H48.0065Z" fill="#FBBC05"/>
<path d="M87.6967 19.0508H69.9729V9.8712C69.9729 9.41223 70.2155 8.95326 70.7244 8.51841C71.2339 8.05945 71.7429 7.84202 72.2762 7.84202H85.6841V5.47465C85.6841 5.2814 85.5874 5.1123 85.4177 4.96736C85.2719 4.84657 85.1022 4.77411 84.9326 4.77411H69.9729V2.28595C69.9729 1.82697 70.1669 1.4163 70.5305 1.07811C70.8941 0.764069 71.355 0.594971 71.8882 0.594971H87.6967C88.23 0.594971 88.6908 0.764069 89.0544 1.07811C89.4181 1.4163 89.612 1.82697 89.612 2.28595V11.8279H74.7977C74.6281 11.8279 74.4827 11.9004 74.3374 12.0212C74.192 12.1661 74.1191 12.3352 74.1191 12.5284V14.8234H89.612V17.384C89.612 17.843 89.4181 18.2536 89.0544 18.5677C88.6908 18.8817 88.23 19.0508 87.6967 19.0508Z" fill="#34A853"/>
</g>
<defs>
<clipPath id="clip0_267_114">
<rect width="90" height="19.0678" fill="white" transform="translate(0 0.466064)"/>
</clipPath>
</defs>
</svg>
